<svg width="513" height="342" viewBox="0 0 513 342" fill="none" xmlns="http://www.w3.org/2000/svg">
<g clip-path="url(#clip0_301_1600)">
<path d="M0 -0.00585938H513V341.994H0V-0.00585938Z" fill="#EF3340"/>
<path d="M0 -0.00585938H513V113.994H0V-0.00585938Z" fill="#00B5E2"/>
<path d="M0 227.994H513V341.994H0V227.994Z" fill="#509E2F"/>
<path d="M265.6 212.594C242.6 212.594 224 193.994 224 170.994C224 147.994 242.6 129.394 265.6 129.394C272.8 129.394 279.5 131.194 285.4 134.394C276.2 125.394 263.5 119.794 249.6 119.794C221.3 119.794 198.4 142.694 198.4 170.994C198.4 199.294 221.3 222.194 249.6 222.194C263.5 222.194 276.2 216.594 285.4 207.594C279.5 210.794 272.8 212.594 265.6 212.594Z" fill="white"/>
<path d="M297.6 142.194L303.1 157.694L318 150.594L310.9 165.494L326.4 170.994L310.9 176.494L318 191.394L303.1 184.294L297.6 199.794L292.1 184.294L277.2 191.394L284.3 176.494L268.8 170.994L284.3 165.494L277.2 150.594L292.1 157.694L297.6 142.194Z" fill="white"/>
</g>
<defs>
<clipPath id="clip0_301_1600">
<rect width="513" height="342" fill="white" transform="translate(0 -0.00585938)"/>
</clipPath>
</defs>
</svg>
