<svg width="513" height="342" viewBox="0 0 513 342" fill="none" xmlns="http://www.w3.org/2000/svg">
<g clip-path="url(#clip0_301_824)">
<path d="M0 -0.00585938H513V341.994H0V-0.00585938Z" fill="#D80027"/>
<path d="M0 -0.00585938H513V170.994H0V-0.00585938Z" fill="#0052B4"/>
<path d="M149.3 98.0941C149.3 84.0941 138 72.7941 124 72.7941C117.5 72.7941 111.6 75.1941 107.1 79.1941V64.3941H115.5V47.4941H107.1V39.0941H90.3001V47.4941H81.9001V64.3941H90.3001V79.2941C85.8001 75.2941 79.9001 72.8941 73.4001 72.8941C59.4001 72.8941 48.1001 84.1941 48.1001 98.1941C48.1001 105.694 51.4001 112.394 56.5001 116.994V131.894H140.8V116.994C146.1 112.294 149.3 105.494 149.3 98.0941Z" fill="#FFDA44"/>
</g>
<defs>
<clipPath id="clip0_301_824">
<rect width="513" height="342" fill="white" transform="translate(0 -0.00585938)"/>
</clipPath>
</defs>
</svg>
