<svg width="513" height="342" viewBox="0 0 513 342" fill="none" xmlns="http://www.w3.org/2000/svg">
<g clip-path="url(#clip0_301_710)">
<path d="M0 -0.00585938H513V341.994H0V-0.00585938Z" fill="#0071BC"/>
<path d="M256.5 321.474C341.497 321.474 410.4 252.571 410.4 167.574C410.4 82.5775 341.497 13.6741 256.5 13.6741C171.503 13.6741 102.6 82.5775 102.6 167.574C102.6 252.571 171.503 321.474 256.5 321.474Z" fill="white"/>
<path fill-rule="evenodd" clip-rule="evenodd" d="M256.5 14.6241C172.028 14.6241 103.55 83.1022 103.55 167.574C103.55 252.046 172.028 320.524 256.5 320.524C340.972 320.524 409.45 252.046 409.45 167.574C409.45 83.1022 340.972 14.6241 256.5 14.6241ZM101.65 167.574C101.65 82.0528 170.979 12.7241 256.5 12.7241C342.021 12.7241 411.35 82.0528 411.35 167.574C411.35 253.095 342.021 322.424 256.5 322.424C170.979 322.424 101.65 253.095 101.65 167.574Z" fill="black"/>
<path d="M256.5 280.434C318.831 280.434 369.36 229.905 369.36 167.574C369.36 105.243 318.831 54.7141 256.5 54.7141C194.169 54.7141 143.64 105.243 143.64 167.574C143.64 229.905 194.169 280.434 256.5 280.434Z" fill="#0071BC"/>
<path fill-rule="evenodd" clip-rule="evenodd" d="M256.5 55.6641C194.694 55.6641 144.59 105.768 144.59 167.574C144.59 229.38 194.694 279.484 256.5 279.484C318.306 279.484 368.41 229.38 368.41 167.574C368.41 105.768 318.306 55.6641 256.5 55.6641ZM142.69 167.574C142.69 104.719 193.644 53.7641 256.5 53.7641C319.355 53.7641 370.31 104.719 370.31 167.574C370.31 230.43 319.355 281.384 256.5 281.384C193.644 281.384 142.69 230.43 142.69 167.574Z" fill="black"/>
<path d="M304.175 307.794C304.654 315.318 298.84 321.474 291.316 321.474H221.343C213.819 321.474 208.005 315.318 208.347 307.794L219.77 85.4941C220.18 77.9701 226.61 71.8141 234.134 71.8141H276.131C283.655 71.8141 290.153 77.9701 290.632 85.4941L304.175 307.794Z" fill="#8C8A8C"/>
<path fill-rule="evenodd" clip-rule="evenodd" d="M220.718 85.5441C220.718 85.5447 220.718 85.5453 220.718 85.5459L209.296 307.837C209.296 307.838 209.296 307.839 209.296 307.84C208.979 314.829 214.368 320.524 221.343 320.524H291.316C298.294 320.524 303.671 314.828 303.227 307.854L303.227 307.852L289.684 85.5545C289.684 85.554 289.684 85.5535 289.684 85.553C289.236 78.5241 283.148 72.7641 276.131 72.7641H234.133C227.121 72.7641 221.102 78.5183 220.718 85.5441ZM218.821 85.4424C219.258 77.421 226.098 70.8641 234.133 70.8641H276.131C284.162 70.8641 291.07 77.4153 291.58 85.4338L291.58 85.4364L305.123 307.734C305.123 307.734 305.123 307.735 305.123 307.735C305.636 315.809 299.385 322.424 291.316 322.424H221.343C213.27 322.424 207.031 315.809 207.398 307.751L207.398 307.745H207.398L218.821 85.4454L218.821 85.4424Z" fill="black"/>
<path d="M255.132 77.9702L275.652 141.582H342L288.648 179.886L308.484 242.814L255.132 204.51L201.78 243.498L222.3 179.886L168.264 140.898H234.612L255.132 77.9702Z" fill="white"/>
<path fill-rule="evenodd" clip-rule="evenodd" d="M255.134 76.9702C255.567 76.9708 255.951 77.2507 256.084 77.6632L276.38 140.582H342C342.434 140.582 342.819 140.862 342.952 141.276C343.085 141.689 342.936 142.141 342.583 142.394L289.82 180.276L309.438 242.514C309.567 242.924 309.419 243.372 309.071 243.624C308.722 243.877 308.251 243.878 307.901 243.626L255.137 205.745L202.37 244.306C202.02 244.561 201.546 244.562 201.194 244.309C200.843 244.055 200.695 243.604 200.829 243.191L221.125 180.271L167.679 141.709C167.327 141.455 167.179 141.004 167.313 140.591C167.446 140.178 167.83 139.898 168.264 139.898H233.886L254.181 77.6601C254.316 77.2481 254.7 76.9695 255.134 76.9702ZM255.127 81.2115L235.563 141.208C235.429 141.62 235.045 141.898 234.612 141.898H171.359L222.885 179.075C223.237 179.329 223.385 179.78 223.252 180.193L203.678 240.873L254.542 203.703C254.891 203.448 255.364 203.446 255.715 203.698L306.627 240.25L287.694 180.187C287.565 179.775 287.714 179.326 288.065 179.074L338.893 142.582H275.652C275.218 142.582 274.834 142.302 274.701 141.889L255.127 81.2115Z" fill="black"/>
</g>
<defs>
<clipPath id="clip0_301_710">
<rect width="513" height="342" fill="white" transform="translate(0 -0.00585938)"/>
</clipPath>
</defs>
</svg>
