<svg width="513" height="342" viewBox="0 0 513 342" fill="none" xmlns="http://www.w3.org/2000/svg">
<g clip-path="url(#clip0_301_67)">
<path d="M0 -0.00585938H513V341.961H0V-0.00585938Z" fill="white"/>
<path d="M398.477 166.619L347.377 264.51C346.275 266.514 347.076 269.019 349.181 270.121C351.184 271.223 353.689 270.421 354.792 268.317L405.891 170.426C406.893 168.322 405.991 165.817 403.887 164.916C401.883 164.014 399.579 164.715 398.477 166.619Z" fill="#1583C4"/>
<path d="M405.691 188.361L347.778 263.909C346.476 265.812 346.977 268.417 348.881 269.72C350.584 270.922 352.989 270.622 354.391 269.019L412.304 193.471C413.707 191.668 413.406 189.063 411.503 187.66C409.699 186.157 407.094 186.558 405.691 188.361Z" fill="#1583C4"/>
<path d="M379.74 181.648L347.177 264.911C346.375 267.015 347.377 269.52 349.581 270.321C351.685 271.123 354.19 270.121 354.992 267.916L387.555 184.654C388.257 182.45 387.154 180.145 384.95 179.344C382.846 178.743 380.642 179.745 379.74 181.648Z" fill="#1583C4"/>
<path d="M122.339 172.23C122.74 173.933 123.541 176.939 124.543 180.746C126.246 187.159 128.15 193.571 130.154 199.483C132.459 206.396 144.883 230.944 150.394 238.659C157.307 248.378 164.521 257.997 171.936 267.315C173.539 269.219 176.444 269.419 178.348 267.816C180.152 266.213 180.452 263.508 179.049 261.604C171.735 252.386 164.621 242.968 157.808 233.349C153.6 227.538 140.574 202.188 138.771 196.577C135.865 187.86 133.36 178.943 131.156 170.026C130.655 167.621 128.25 166.018 125.846 166.519C123.441 167.02 121.838 169.424 122.339 171.829C122.239 172.029 122.339 172.13 122.339 172.23Z" fill="#409347"/>
<path d="M297.68 115.119C297.68 115.119 280.046 42.8777 261.51 42.8777C254.596 42.8777 249.587 42.2766 246.08 49.2902C245.178 50.9936 225.339 47.6871 226.942 70.1309C227.443 77.0443 228.045 60.3117 241.871 66.7242C248.184 69.7301 225.439 115.018 225.439 115.018H297.68V115.119Z" fill="#FFD836"/>
<path fill-rule="evenodd" clip-rule="evenodd" d="M260.01 42.3709C260.502 42.3743 261.002 42.3777 261.51 42.3777C263.995 42.3777 266.411 43.5877 268.715 45.6056C271.022 47.6255 273.262 50.4919 275.405 53.8991C279.692 60.715 283.648 69.7827 287.015 78.8236C290.384 87.8699 293.171 96.9132 295.116 103.693C296.089 107.083 296.851 109.909 297.37 111.888C297.63 112.877 297.829 113.654 297.963 114.185C297.994 114.31 298.022 114.421 298.046 114.518H298.18V119.275L297.263 115.518H224.629L224.993 114.794L225.44 115.018C224.993 114.794 224.993 114.794 224.993 114.794L224.994 114.792L225.057 114.665C225.1 114.579 225.163 114.453 225.246 114.287C225.41 113.955 225.651 113.468 225.955 112.847C226.564 111.604 227.427 109.825 228.443 107.681C230.475 103.392 233.117 97.6447 235.561 91.8054C238.008 85.9615 240.248 80.044 241.484 75.4095C242.103 73.0876 242.461 71.1197 242.478 69.6565C242.486 68.9243 242.409 68.3505 242.257 67.9324C242.109 67.5228 241.902 67.2932 241.659 67.1766C238.281 65.6105 235.775 65.4862 233.91 66.0051C232.041 66.5253 230.737 67.7134 229.806 68.9207C229.34 69.5243 228.972 70.1276 228.675 70.6483C228.585 70.8048 228.499 70.9602 228.417 71.108C228.24 71.4277 228.082 71.7122 227.953 71.8976C227.903 71.9708 227.845 72.0473 227.779 72.1137C227.721 72.1731 227.617 72.2661 227.469 72.3119C227.283 72.3693 227.084 72.3349 226.927 72.2121C226.801 72.114 226.736 71.9851 226.7 71.9007C226.626 71.7263 226.581 71.4908 226.545 71.229C226.508 70.9545 226.475 70.6024 226.444 70.167C226.038 64.4845 226.986 60.377 228.696 57.3967C230.408 54.4133 232.857 52.6059 235.367 51.4769C237.869 50.3512 240.44 49.8958 242.413 49.614C242.747 49.5663 243.06 49.524 243.352 49.4846C243.936 49.4058 244.433 49.3386 244.841 49.2627C245.146 49.206 245.368 49.1498 245.519 49.0918C245.598 49.0615 245.636 49.0384 245.652 49.0281C247.457 45.4375 249.684 43.7394 252.381 42.9729C254.629 42.3337 257.194 42.3514 260.01 42.3709ZM226.247 114.518H297.015C297.008 114.49 297.001 114.46 296.993 114.43C296.86 113.902 296.662 113.127 296.403 112.141C295.885 110.169 295.125 107.351 294.155 103.969C292.214 97.2035 289.434 88.1866 286.078 79.1726C282.719 70.1533 278.791 61.1608 274.558 54.4316C272.441 51.0662 270.262 48.2888 268.057 46.358C265.849 44.4252 263.659 43.3777 261.51 43.3777C260.985 43.3777 260.473 43.3745 259.976 43.3713C257.15 43.3533 254.753 43.3381 252.654 43.9348C250.25 44.6183 248.225 46.1172 246.527 49.5138L246.522 49.5242C246.376 49.8001 246.094 49.942 245.878 50.025C245.64 50.1166 245.346 50.186 245.024 50.2458C244.592 50.3263 244.053 50.3991 243.452 50.4803C243.165 50.5191 242.864 50.5597 242.554 50.604C240.604 50.8827 238.147 51.3228 235.777 52.3889C233.415 53.4516 231.148 55.1323 229.563 57.8944C227.976 60.6597 227.046 64.5558 227.441 70.095C227.458 70.3304 227.475 70.5352 227.493 70.7122C227.497 70.7045 227.501 70.6968 227.505 70.689C227.592 70.5323 227.691 70.3536 227.806 70.1524C228.114 69.6128 228.509 68.9652 229.014 68.3101C230.024 66.9999 231.494 65.6393 233.642 65.0417C235.794 64.443 238.548 64.6316 242.082 66.2706L242.087 66.2727C242.631 66.5322 242.986 67.0085 243.197 67.5915C243.406 68.1669 243.487 68.8744 243.478 69.6682C243.459 71.257 243.076 73.3204 242.45 75.6671C241.197 80.3694 238.934 86.3377 236.484 92.1916C234.031 98.0501 231.382 103.813 229.347 108.109C228.329 110.258 227.464 112.041 226.853 113.286C226.608 113.788 226.404 114.202 226.247 114.518ZM227.066 71.4125C227.062 71.4167 227.062 71.4171 227.066 71.4125V71.4125Z" fill="#231F20"/>
<path d="M467.011 48.4887L375.933 70.5316C300.486 88.8674 333.751 115.018 333.751 115.018L261.51 127.042L189.269 115.018C189.269 115.018 222.534 88.8674 147.087 70.5316L56.0095 48.4887C43.1845 45.3826 38.1747 51.8953 45.3888 63.1172C45.3888 63.1172 152.197 167.32 172.436 175.336C192.676 183.452 213.316 175.336 213.316 175.336C213.316 175.336 198.387 184.053 189.269 199.383C180.051 214.713 184.66 234.151 150.293 239.661C144.783 246.274 145.284 253.689 153.199 259.6C161.114 265.411 225.44 211.406 225.44 211.406C225.44 211.406 201.393 235.854 201.393 247.577C201.393 252.687 245.579 301.482 261.61 301.482C277.642 301.482 321.828 252.687 321.828 247.577C321.828 235.854 297.781 211.406 297.781 211.406C297.781 211.406 362.106 265.411 370.022 259.6C377.937 253.789 381.444 240.262 372.827 239.661C344.772 237.858 343.069 214.713 333.851 199.383C324.633 184.053 309.804 175.336 309.804 175.336C309.804 175.336 330.444 183.452 350.684 175.336C370.923 167.22 477.631 63.1172 477.631 63.1172C484.845 51.8953 479.936 45.3826 467.011 48.4887Z" fill="#FFD836"/>
<path fill-rule="evenodd" clip-rule="evenodd" d="M56.1271 48.0027C56.127 48.0027 56.1271 48.0027 56.1271 48.0027L147.205 70.0457C166.093 74.636 178.225 79.726 185.786 84.803C193.353 89.8838 196.386 94.9844 196.967 99.5883C197.546 104.177 195.672 108.145 193.696 110.935C192.705 112.333 191.68 113.449 190.902 114.215C190.718 114.396 190.548 114.557 190.396 114.699L261.51 126.535L332.624 114.699C332.471 114.557 332.302 114.396 332.118 114.215C331.34 113.449 330.315 112.333 329.324 110.935C327.348 108.145 325.474 104.177 326.053 99.5883C326.634 94.9844 329.667 89.8838 337.234 84.803C344.795 79.726 356.927 74.6362 375.815 70.0458L466.893 48.0027C470.165 47.2165 472.966 47.0293 475.217 47.3923C477.471 47.7557 479.206 48.6776 480.276 50.1339C481.347 51.5919 481.694 53.5077 481.326 55.7417C480.959 57.971 479.878 60.5468 478.052 63.3875L478.021 63.4354L477.98 63.4751L477.631 63.1172C477.98 63.4751 477.98 63.4755 477.979 63.4763L477.976 63.4799L477.673 63.7743C477.471 63.9716 477.17 64.2645 476.776 64.6468C475.99 65.4115 474.833 66.534 473.354 67.9655C470.397 70.8284 466.149 74.9272 460.988 79.8711C450.666 89.7588 436.693 103.027 422.087 116.55C407.482 130.072 392.24 143.851 379.381 154.759C372.953 160.213 367.115 164.952 362.249 168.585C357.396 172.206 353.468 174.758 350.87 175.8C340.644 179.901 330.33 179.896 322.589 178.875C318.716 178.364 315.48 177.598 313.21 176.958C313.188 176.952 313.165 176.946 313.143 176.94C314.626 177.984 316.548 179.421 318.693 181.228C323.578 185.346 329.633 191.398 334.28 199.125C336.458 202.749 338.219 206.801 339.987 210.871C340.106 211.144 340.224 211.417 340.343 211.69C342.239 216.047 344.178 220.399 346.696 224.324C349.21 228.245 352.293 231.725 356.463 234.339C360.632 236.952 365.916 238.716 372.859 239.162L372.862 239.163C375.168 239.323 376.73 240.366 377.579 241.98C378.411 243.561 378.521 245.618 378.115 247.77C377.303 252.074 374.38 257.021 370.317 260.003C369.682 260.469 368.824 260.596 367.864 260.515C366.896 260.433 365.752 260.135 364.473 259.667C361.913 258.731 358.72 257.08 355.139 254.951C347.972 250.692 339.172 244.473 330.633 238.083C322.091 231.69 313.798 225.117 307.641 220.143C306.034 218.845 304.573 217.655 303.291 216.606C305.327 218.888 307.761 221.716 310.196 224.785C313.209 228.583 316.232 232.76 318.504 236.731C320.765 240.683 322.328 244.506 322.328 247.577C322.328 248.029 322.1 248.615 321.772 249.253C321.432 249.916 320.937 250.721 320.311 251.641C319.059 253.483 317.259 255.822 315.058 258.474C310.653 263.782 304.617 270.373 298.081 276.802C291.547 283.23 284.501 289.508 278.076 294.182C274.865 296.519 271.798 298.463 269.02 299.824C266.252 301.181 263.727 301.982 261.61 301.982C259.493 301.982 256.968 301.181 254.2 299.824C251.422 298.463 248.356 296.519 245.144 294.182C238.719 289.508 231.674 283.23 225.139 276.802C218.603 270.373 212.567 263.782 208.163 258.474C205.961 255.822 204.161 253.483 202.909 251.641C202.284 250.721 201.789 249.916 201.448 249.253C201.121 248.615 200.893 248.029 200.893 247.577C200.893 244.506 202.455 240.683 204.716 236.731C206.988 232.76 210.011 228.583 213.024 224.785C215.459 221.716 217.893 218.888 219.93 216.606C218.647 217.655 217.186 218.845 215.579 220.143C209.422 225.117 201.129 231.69 192.587 238.083C184.048 244.473 175.248 250.692 168.081 254.951C164.5 257.08 161.307 258.731 158.747 259.667C157.468 260.135 156.325 260.433 155.357 260.515C154.396 260.596 153.538 260.469 152.903 260.003L152.9 260.001C148.868 256.989 146.662 253.547 146.215 249.956C145.768 246.363 147.091 242.723 149.909 239.341L150.029 239.197L150.214 239.168C158.761 237.797 164.848 235.566 169.321 232.775C173.787 229.987 176.666 226.625 178.779 222.955C180.831 219.388 182.159 215.533 183.517 211.593C183.561 211.464 183.606 211.335 183.65 211.206C185.05 207.146 186.505 203.01 188.84 199.127C188.84 199.126 188.84 199.126 188.841 199.125L189.268 199.382L188.84 199.127C188.84 199.127 188.84 199.127 188.84 199.127C193.436 191.398 199.492 185.345 204.39 181.228C206.535 179.425 208.46 177.991 209.948 176.948C211.065 176.632 211.946 176.348 212.551 176.142C212.857 176.038 213.092 175.953 213.252 175.894C213.332 175.865 213.393 175.842 213.434 175.826L213.481 175.808L213.494 175.803L213.497 175.802L213.498 175.801C213.499 175.801 213.499 175.801 213.316 175.336C213.064 174.904 213.064 174.904 213.063 174.904L213.06 174.906L213.051 174.911L213.017 174.932C212.988 174.949 212.944 174.975 212.887 175.01C212.773 175.079 212.606 175.182 212.39 175.317C211.959 175.589 211.335 175.993 210.558 176.525C210.364 176.658 210.161 176.799 209.948 176.948C209.936 176.951 209.923 176.955 209.91 176.958C207.641 177.598 204.404 178.364 200.531 178.875C192.791 179.896 182.477 179.901 172.252 175.801C172.252 175.801 172.252 175.801 172.252 175.801L172.436 175.336L172.25 175.8C172.251 175.8 172.251 175.8 172.252 175.801C169.653 174.771 165.722 172.228 160.868 168.614C155.998 164.988 150.157 160.253 143.723 154.802C130.856 143.898 115.601 130.116 100.983 116.588C86.3643 103.059 72.3786 89.7807 62.0478 79.8852C56.8824 74.9374 52.6305 70.8351 49.6699 67.9696C48.1896 66.5368 47.0321 65.4133 46.2446 64.6479C45.8509 64.2652 45.5497 63.9721 45.3468 63.7745L45.0407 63.4763C45.0399 63.4755 45.0395 63.4751 45.3887 63.1172L45.8092 62.8468C45.799 62.8309 45.7888 62.815 45.7786 62.7991L46.0445 63.0581C46.2471 63.2554 46.5481 63.5484 46.9416 63.9308C47.7286 64.6958 48.8856 65.8188 50.3653 67.251C53.3249 70.1155 57.5755 74.2166 62.7395 79.1631C73.0678 89.0561 87.0491 102.33 101.662 115.854C116.276 129.378 131.519 143.149 144.37 154.039C150.796 159.484 156.619 164.204 161.465 167.812C166.325 171.43 170.159 173.896 172.62 174.871L172.622 174.872C182.636 178.887 192.762 178.891 200.401 177.884C204.218 177.38 207.406 176.625 209.639 175.996C210.755 175.682 211.632 175.399 212.228 175.196C212.526 175.094 212.754 175.012 212.907 174.956C212.983 174.928 213.04 174.906 213.078 174.892L213.12 174.875L213.133 174.871L213.568 175.767L213.566 175.769L213.559 175.773L213.528 175.791C213.511 175.802 213.487 175.816 213.457 175.834C213.441 175.843 213.424 175.854 213.405 175.865C213.296 175.931 213.134 176.031 212.923 176.163C212.502 176.429 211.889 176.825 211.123 177.35C209.593 178.399 207.455 179.958 205.033 181.993C200.188 186.067 194.22 192.037 189.699 199.638L189.698 199.64C187.424 203.422 185.998 207.463 184.596 211.532L184.451 211.951C183.103 215.866 181.747 219.802 179.645 223.454C177.462 227.248 174.473 230.737 169.85 233.623C165.267 236.484 159.099 238.737 150.559 240.125C150.598 240.077 150.637 240.029 150.677 239.981L150.293 239.661L150.372 240.155C150.435 240.145 150.497 240.135 150.559 240.125C147.95 243.313 146.809 246.634 147.207 249.832C147.612 253.078 149.614 256.298 153.495 259.198C153.495 259.197 153.496 259.198 153.495 259.198L153.199 259.6L153.498 259.2C153.497 259.199 153.496 259.198 153.495 259.198C153.85 259.458 154.421 259.59 155.273 259.518C156.116 259.447 157.166 259.181 158.404 258.728C160.877 257.824 164.007 256.209 167.57 254.092C174.691 249.86 183.456 243.667 191.988 237.282C200.517 230.9 208.799 224.335 214.951 219.365C218.026 216.88 220.569 214.794 222.342 213.33C223.228 212.598 223.923 212.021 224.395 211.627C224.632 211.43 224.812 211.279 224.934 211.177L225.107 211.033L225.115 211.026L225.117 211.024C225.118 211.023 225.118 211.023 225.44 211.406C225.796 211.757 225.796 211.757 225.796 211.757L225.779 211.774L225.728 211.826C225.683 211.872 225.616 211.941 225.529 212.031C225.354 212.212 225.096 212.48 224.769 212.824C224.113 213.513 223.176 214.511 222.052 215.746C219.803 218.216 216.805 221.629 213.808 225.406C210.81 229.185 207.821 233.318 205.584 237.228C203.336 241.157 201.893 244.786 201.893 247.577C201.893 247.764 202.01 248.157 202.338 248.796C202.652 249.408 203.122 250.176 203.736 251.079C204.963 252.884 206.741 255.195 208.932 257.836C213.313 263.115 219.326 269.681 225.84 276.089C232.356 282.499 239.363 288.739 245.732 293.373C248.917 295.691 251.933 297.599 254.64 298.926C257.357 300.258 259.719 300.982 261.61 300.982C263.501 300.982 265.863 300.258 268.58 298.926C271.288 297.599 274.303 295.691 277.488 293.373C283.857 288.739 290.864 282.499 297.38 276.089C303.894 269.681 309.907 263.115 314.288 257.836C316.48 255.195 318.257 252.884 319.484 251.079C320.098 250.176 320.568 249.408 320.883 248.796C321.21 248.157 321.328 247.764 321.328 247.577C321.328 244.786 319.884 241.157 317.636 237.228C315.399 233.318 312.411 229.185 309.412 225.406C306.416 221.629 303.418 218.216 301.168 215.746C300.044 214.511 299.107 213.513 298.452 212.824C298.331 212.698 298.22 212.582 298.12 212.476C297.946 212.295 297.802 212.146 297.691 212.031C297.604 211.941 297.537 211.872 297.492 211.826L297.441 211.774L297.424 211.757C297.424 211.757 297.424 211.757 297.476 211.706L297.424 211.757L298.102 211.023L298.08 211.051C298.103 211.024 298.102 211.023 298.102 211.023L298.105 211.026L298.114 211.033L298.286 211.177C298.408 211.279 298.589 211.43 298.825 211.627C299.298 212.021 299.992 212.598 300.879 213.33C302.652 214.794 305.194 216.88 308.269 219.365C314.421 224.335 322.704 230.9 331.232 237.282C339.764 243.667 348.53 249.86 355.65 254.092C359.213 256.209 362.344 257.824 364.817 258.728C366.054 259.181 367.104 259.447 367.948 259.518C368.8 259.59 369.371 259.457 369.726 259.197C373.579 256.368 376.366 251.646 377.132 247.584C377.516 245.553 377.381 243.752 376.694 242.446C376.025 241.174 374.795 240.3 372.794 240.16C365.71 239.705 360.261 237.899 355.932 235.186C351.605 232.474 348.425 228.872 345.854 224.864C343.287 220.862 341.319 216.441 339.426 212.089C339.31 211.822 339.193 211.554 339.077 211.287C337.302 207.201 335.566 203.205 333.422 199.64C328.851 192.038 322.882 186.067 318.049 181.993C315.633 179.957 313.505 178.398 311.982 177.349C311.22 176.825 310.61 176.428 310.192 176.163C310.07 176.086 309.964 176.02 309.876 175.965C309.813 175.926 309.758 175.892 309.713 175.864C309.658 175.831 309.617 175.807 309.59 175.79L309.56 175.772L309.553 175.768L309.551 175.767L309.987 174.871L309.99 174.872L310 174.875L310.042 174.892C310.08 174.906 310.137 174.928 310.214 174.956C310.366 175.012 310.594 175.094 310.892 175.196C311.488 175.399 312.365 175.682 313.481 175.996C315.714 176.625 318.902 177.38 322.72 177.884C330.358 178.891 340.484 178.887 350.498 174.872C352.96 173.885 356.793 171.408 361.65 167.783C366.493 164.169 372.313 159.444 378.734 153.997C391.576 143.103 406.806 129.335 421.408 115.816C436.008 102.299 449.977 89.0343 460.296 79.149C465.455 74.2064 469.702 70.1088 472.659 67.2469C474.137 65.816 475.293 64.694 476.079 63.9297C476.473 63.5476 476.773 63.255 476.976 63.0578L477.241 62.7991C479.003 60.0485 480.004 57.6184 480.339 55.5792C480.676 53.533 480.34 51.9107 479.47 50.726C478.599 49.5396 477.134 48.7144 475.058 48.3795C472.979 48.0443 470.319 48.208 467.128 48.9746M467.128 48.9746L376.051 71.0175C357.216 75.595 345.213 80.6499 337.792 85.6332C330.376 90.6125 327.579 95.4877 327.045 99.7135C326.51 103.954 328.237 107.67 330.14 110.357C331.089 111.696 332.073 112.767 332.82 113.503C333.193 113.87 333.506 114.153 333.724 114.343C333.833 114.438 333.918 114.51 333.976 114.557C334.005 114.581 334.026 114.598 334.04 114.61L334.056 114.622L334.059 114.625L334.951 115.326L261.51 127.549L188.069 115.326L188.96 114.625L188.964 114.622L188.979 114.61C188.994 114.598 189.015 114.581 189.044 114.557C189.101 114.51 189.187 114.438 189.296 114.343C189.514 114.153 189.827 113.87 190.2 113.503C190.947 112.767 191.931 111.696 192.88 110.357C194.783 107.67 196.51 103.954 195.975 99.7135C195.441 95.4877 192.644 90.6125 185.228 85.6332C177.807 80.6499 165.804 75.595 146.969 71.0176M146.969 71.0176L55.8917 48.9746C52.7264 48.208 50.079 48.0443 48.0046 48.3795C45.933 48.7143 44.4645 49.5396 43.5864 50.7272C42.7098 51.9129 42.3657 53.5357 42.6948 55.581C43.0229 57.6194 44.0172 60.049 45.7786 62.7991L45.739 62.7605C45.7382 62.7597 45.7378 62.7593 45.3887 63.1172L45.0395 63.4751L44.9988 63.4354L44.9681 63.3875C43.1415 60.5463 42.0664 57.9699 41.7075 55.7399C41.3479 53.505 41.7052 51.5896 42.7823 50.1327C43.8581 48.6776 45.5958 47.7558 47.8451 47.3923C50.0917 47.0293 52.8799 47.2163 56.1271 48.0027M225.44 211.406L225.796 211.757L225.117 211.024L225.44 211.406Z" fill="#231F20"/>
<path d="M201.693 112.013V192.469C201.693 238.259 261.51 252.286 261.51 252.286C261.51 252.286 321.327 238.259 321.327 192.469V112.013H201.693Z" fill="white"/>
<path fill-rule="evenodd" clip-rule="evenodd" d="M201.693 111.513H321.827V192.469C321.827 215.617 306.699 230.704 291.681 239.974C284.166 244.612 276.656 247.811 271.027 249.849C268.211 250.868 265.864 251.598 264.219 252.074C263.397 252.312 262.75 252.486 262.308 252.601C262.086 252.659 261.917 252.701 261.801 252.73C261.744 252.744 261.7 252.755 261.67 252.762L261.636 252.77L261.628 252.772L261.625 252.773C261.625 252.773 261.624 252.773 261.51 252.286C261.396 252.773 261.395 252.773 261.395 252.773L261.392 252.772L261.384 252.77L261.35 252.762C261.32 252.755 261.276 252.744 261.219 252.73C261.103 252.701 260.933 252.659 260.712 252.601C260.27 252.486 259.623 252.312 258.801 252.074C257.156 251.598 254.809 250.868 251.993 249.849C246.364 247.811 238.854 244.612 231.339 239.974C216.321 230.704 201.193 215.617 201.193 192.469V112.013H201.693V111.513ZM202.193 112.513V192.469C202.193 215.111 216.974 229.932 231.864 239.123C239.304 243.715 246.748 246.886 252.334 248.909C255.126 249.92 257.452 250.643 259.079 251.113C259.892 251.349 260.53 251.52 260.964 251.633C261.181 251.69 261.347 251.731 261.458 251.759C261.477 251.764 261.494 251.768 261.51 251.772C261.526 251.768 261.543 251.764 261.562 251.759C261.673 251.731 261.839 251.69 262.056 251.633C262.49 251.52 263.128 251.349 263.941 251.113C265.568 250.643 267.894 249.92 270.686 248.909C276.272 246.886 283.716 243.715 291.156 239.123C306.046 229.932 320.827 215.111 320.827 192.469V112.513H202.193ZM261.51 252.286L261.396 252.773L261.51 252.8L261.624 252.773L261.51 252.286Z" fill="#231F20"/>
<path d="M225.64 137.963V235.453C233.856 241.465 242.673 245.673 249.586 248.378V137.963H225.64ZM297.379 137.963V235.453C289.163 241.465 280.346 245.673 273.433 248.378V137.963H297.379Z" fill="#D80027"/>
<path d="M201.693 112.013H321.327V149.987H201.693V112.013Z" fill="#0052B4"/>
<path d="M60.2172 210.905L38.2744 152.692H15.7305L47.5926 233.65H72.8418L104.403 152.692H81.8594L60.2172 210.905ZM452.382 152.191H471.319V234.05H452.382V152.191Z" fill="#1583C4"/>
</g>
<defs>
<clipPath id="clip0_301_67">
<rect width="513" height="341.967" fill="white" transform="translate(0 -0.00585938)"/>
</clipPath>
</defs>
</svg>
